<svg xmlns="http://www.w3.org/2000/svg">
  <symbol fill="none" viewBox="0 0 44 44" id="crop">
    <path d="M32 28h4V12a4 4 0 00-4-4H16v4h16v16zm-20 4V0H8v8H0v4h8v20a4 4 0 004 4h20v8h4v-8h8v-4H12z" fill="currentColor"></path>
  </symbol>
  <symbol fill="none" viewBox="0 0 48 43" id="fill">
    <path d="M33.12 17.88L15.24 0l-2.83 2.83 4.76 4.76L6.88 17.88a3 3 0 000 4.24l11 11a3 3 0 004.24 0l11-11a3 3 0 000-4.24zM10.41 20L20 10.42 29.59 20H10.41zM38 23s-4 4.33-4 7a4 4 0 108 0c0-2.67-4-7-4-7zm10 17H0v3h48v-3z" fill="currentColor"></path>
  </symbol>
  <symbol fill="none" viewBox="0 0 32 32" id="contrast">
    <path d="M16 4a12 12 0 110 24 12 12 0 010-24zm0-4a16 16 0 100 32 16 16 0 000-32zm0 24.29a8.52 8.52 0 000-17" fill="currentColor"></path>
  </symbol>
</svg>
